<svg version="1.1" id="Layer_1" xmlns="http://www.w3.org/2000/svg" xmlns:xlink="http://www.w3.org/1999/xlink" x="0px" y="0px"
	 width="100%" viewBox="0 0 1024 864" enable-background="new 0 0 1024 864" xml:space="preserve">
<path fill="#000000" opacity="1.000000" stroke="none" 
	d="
M1025.000000,257.000000 
	C1025.000000,459.666687 1025.000000,662.333374 1025.000000,865.000000 
	C1003.567322,865.000000 982.247498,865.000000 960.646362,864.679565 
	C961.590332,863.858398 962.793274,863.292114 964.044189,862.866760 
	C992.875122,853.062988 1011.508240,827.883240 1011.553162,797.484741 
	C1011.699890,698.174866 1011.637512,598.864624 1011.551636,499.554688 
	C1011.541321,487.572113 1008.873657,476.087006 1003.030762,465.499176 
	C1001.955200,463.550293 1001.245850,461.154877 998.346436,460.263153 
	C998.346436,464.146912 998.346619,467.833466 998.346436,471.520020 
	C998.340393,572.996155 998.413513,674.472473 998.251953,775.948364 
	C998.224365,793.260315 992.557007,809.067261 982.090576,822.848572 
	C965.275879,844.988586 942.712158,856.268921 914.927124,856.280579 
	C736.635681,856.355347 558.344238,856.298035 380.052826,856.318481 
	C378.722076,856.318665 377.118866,855.593689 375.946198,857.195801 
	C380.756592,861.087036 387.106293,861.561584 392.000000,865.000000 
	C300.642578,865.000000 209.285172,865.000000 117.555748,864.794067 
	C117.494057,862.324585 116.298935,860.346802 115.433121,858.542664 
	C113.002640,853.478210 111.594086,847.599487 104.992104,845.614441 
	C95.431320,842.739746 86.004372,839.291260 75.894516,839.066895 
	C69.777267,838.931152 63.627781,837.749939 58.548306,835.044067 
	C52.614098,831.882874 47.234066,833.362244 42.322308,835.176025 
	C32.083145,838.957214 25.435289,836.330627 22.794163,825.912109 
	C22.001545,822.785400 20.137352,819.021362 17.283329,819.905579 
	C12.181624,821.486084 7.695614,818.829224 2.782456,819.288696 
	C2.158638,820.937500 1.579315,822.468750 0.999996,824.000000 
	C1.000000,589.642578 1.000000,355.285187 1.340475,120.568192 
	C5.216652,120.750031 8.663585,118.593132 11.998142,119.297546 
	C19.103594,120.798546 24.591475,117.537270 30.163500,114.191635 
	C36.419636,110.435219 42.991505,109.031372 50.254829,110.644188 
	C55.984585,111.916481 61.987206,112.613930 67.450424,110.037941 
	C85.956268,101.312141 99.365768,87.401825 106.940636,68.422028 
	C115.475693,47.036362 129.632767,33.141499 153.401825,30.851526 
	C162.146057,30.009085 169.856339,25.741417 178.104233,23.252115 
	C180.811417,22.435062 183.533371,20.264753 181.722198,16.826866 
	C179.578049,12.757000 179.440643,8.563554 179.783768,4.248724 
	C179.914459,2.605160 179.115768,1.794273 178.000000,1.000000 
	C373.357422,1.000000 568.714844,1.000000 764.288635,1.186929 
	C763.712646,1.998389 762.790222,2.653045 762.949951,3.769930 
	C764.316528,13.325871 763.997192,23.083050 772.160278,30.771217 
	C783.451172,41.405334 789.264465,55.950863 796.763489,69.209953 
	C799.296875,73.689301 801.327576,78.555389 804.567749,82.510338 
	C808.685303,87.536064 811.468994,93.046104 813.210815,99.206024 
	C814.314697,103.110077 816.021484,106.700294 819.100098,109.464554 
	C822.879211,112.857803 825.659912,117.002235 827.955688,121.453644 
	C837.280945,139.535248 851.838928,153.807877 863.882019,169.864441 
	C872.681335,181.596085 882.997070,192.452148 892.377991,203.872681 
	C902.295959,215.946976 913.024109,226.399994 927.912781,231.941711 
	C929.752686,232.626556 931.657288,233.612595 933.041382,234.962189 
	C938.140686,239.934616 944.509827,242.209671 951.133728,244.040680 
	C959.639160,246.391769 968.119690,248.779205 976.226135,252.372910 
	C978.779053,253.504639 981.624695,254.441040 984.378845,254.571640 
	C995.338196,255.091324 1006.278503,256.561310 1017.270630,255.747864 
	C1020.033142,255.543457 1022.556458,255.750641 1025.000000,257.000000 
M738.838684,388.340240 
	C745.865784,382.502930 751.541504,375.474152 755.402344,367.277496 
	C766.673157,343.348999 764.749817,320.232056 750.604675,297.910645 
	C713.417542,239.228745 676.331482,180.482773 639.214966,121.756096 
	C623.638245,97.110336 608.115112,72.430672 592.515625,47.799339 
	C576.110413,21.895788 546.698303,10.038032 517.280945,17.362289 
	C507.744537,19.736639 499.466705,24.718693 491.288361,29.879307 
	C420.283905,74.683823 349.305115,119.529076 278.297760,164.328964 
	C201.655930,212.683746 125.091019,261.161591 48.289459,309.261444 
	C16.309980,329.289764 4.568708,370.983704 25.948914,404.775757 
	C43.140690,431.947937 60.295704,459.143341 77.461670,486.331848 
	C106.456749,532.256165 135.365463,578.235352 164.490646,624.076965 
	C173.152161,637.709839 180.733521,652.139038 190.946686,664.664917 
	C213.620575,692.473267 250.366272,697.601868 281.790527,677.799316 
	C347.759399,636.227966 413.663239,594.553406 479.602417,552.934875 
	C550.049377,508.471130 620.550720,464.093384 690.924744,419.514526 
	C706.819763,409.445740 723.153870,400.034729 738.838684,388.340240 
M357.491150,647.080505 
	C352.141266,650.484253 346.791382,653.888000 341.441528,657.291748 
	C466.870819,658.767700 591.827087,658.177002 717.915222,658.838928 
	C715.759644,661.612976 714.130005,661.437256 712.735718,661.758057 
	C705.558350,663.408936 698.279724,664.068848 690.911865,664.071838 
	C572.419250,664.119995 453.926666,664.209106 335.434052,664.210510 
	C331.949768,664.210571 329.003387,664.939087 326.059937,666.828003 
	C314.422821,674.296265 302.563660,681.421570 290.989044,688.983459 
	C279.493011,696.494080 267.065430,701.377197 253.497757,703.231018 
	C250.242493,703.675781 249.288437,705.223999 249.313690,708.167419 
	C249.375214,715.333069 249.180450,722.503662 249.369263,729.664856 
	C249.603821,738.561035 251.134033,747.286865 255.065659,755.321594 
	C268.492157,782.760376 290.512390,795.931030 321.145813,795.891357 
	C461.804047,795.709167 602.462585,795.788696 743.121033,795.773865 
	C779.118774,795.770081 815.120483,796.097900 851.113159,795.667908 
	C888.926086,795.216187 918.521179,765.237000 918.577942,727.502075 
	C918.727539,628.008057 918.676697,528.513733 918.571472,429.019653 
	C918.558228,416.518890 915.666199,404.513763 909.174072,393.694824 
	C895.477783,370.870514 874.743958,359.991577 848.558777,359.501953 
	C825.901306,359.078339 803.228271,359.543304 780.565552,359.297363 
	C775.787109,359.245514 773.454468,360.725647 771.829712,365.275574 
	C765.248535,383.706116 753.041870,397.592957 736.525330,407.940765 
	C707.299866,426.250824 678.160278,444.697906 648.993225,463.101166 
	C645.582458,465.253143 642.225464,467.490234 637.996460,470.238342 
	C694.259766,470.238342 749.278137,470.238342 804.367249,470.238342 
	C804.270386,467.798004 802.865173,466.496857 801.872009,465.015717 
	C796.747253,457.372528 790.521667,450.643738 784.277527,443.929810 
	C782.364258,441.872559 779.852539,439.840454 781.045898,436.621399 
	C782.225220,433.440033 785.460754,432.775299 788.341431,432.015411 
	C791.671631,431.136902 794.075684,432.991547 796.279846,435.167725 
	C802.243225,441.055420 807.262573,447.671936 811.634155,454.811310 
	C812.430298,456.111572 812.734253,458.047913 814.853699,458.233673 
	C816.973877,456.091461 817.489624,453.222687 818.478577,450.614746 
	C828.040405,425.398926 840.482666,401.727966 856.300537,379.860992 
	C858.153625,377.299194 859.893005,374.515503 862.966431,373.269012 
	C866.534058,371.822052 870.611450,370.060364 873.706116,373.410675 
	C877.032593,377.011963 873.252625,379.948853 871.332520,382.527771 
	C854.208069,405.528931 840.772705,430.557953 830.040527,457.079529 
	C828.392090,461.153168 826.087524,465.111542 826.181580,469.604004 
	C828.008606,471.164581 829.925964,470.647675 831.694519,470.663727 
	C839.693481,470.736389 847.694336,470.643341 855.692078,470.767242 
	C857.813049,470.800079 860.903381,469.909119 861.096008,473.479614 
	C861.304016,477.334778 858.084778,476.039459 856.017090,476.369019 
	C855.691956,476.420868 855.350647,476.361420 855.018433,476.380859 
	C842.449280,477.115601 829.735840,474.672668 817.274963,478.220276 
	C815.262024,478.793396 812.934875,478.544281 810.940247,477.436127 
	C809.105042,476.416565 807.121582,476.391754 805.111877,476.391754 
	C747.615234,476.391479 690.118652,476.400940 632.622070,476.340302 
	C629.310730,476.336792 626.527710,477.224548 623.739868,478.993958 
	C599.546570,494.349030 575.287231,509.600159 551.054688,524.893372 
	C549.023560,526.175171 547.043762,527.538330 545.040161,528.863708 
	C545.155945,529.157837 545.271667,529.451904 545.387451,529.745972 
	C546.847778,529.745972 548.308167,529.745911 549.768494,529.746033 
	C650.926331,529.751465 752.084167,529.755127 853.242004,529.774292 
	C855.234436,529.774719 857.237854,529.860168 859.215576,530.085754 
	C860.562561,530.239380 861.140259,531.274231 861.141113,532.592896 
	C861.142029,533.896545 860.629639,534.884277 859.247803,535.111877 
	C858.266968,535.273499 857.260071,535.358826 856.266296,535.347595 
	C843.780029,535.206665 831.260864,535.852905 818.859680,533.688232 
	C815.060486,533.025146 811.204956,532.934753 807.412292,533.675537 
	C800.333496,535.058350 793.186035,535.255493 786.010986,535.258667 
	C704.682556,535.294495 623.354187,535.376892 542.025818,535.305786 
	C536.800781,535.301208 532.350586,536.485840 527.962708,539.288025 
	C501.565247,556.145630 475.067932,572.846863 448.607910,589.606445 
	C446.009735,591.252075 443.437286,592.938416 440.852875,594.605835 
	C440.948944,594.955811 441.045013,595.305725 441.141083,595.655701 
	C444.249878,595.655701 447.358704,595.655579 450.467499,595.655701 
	C584.292969,595.659546 718.118469,595.647766 851.943848,595.771240 
	C854.844849,595.773926 860.235229,593.753723 860.230652,598.195923 
	C860.225952,602.753601 854.731323,601.208984 851.554077,601.226135 
	C824.389771,601.372925 797.224487,601.326965 770.059448,601.327698 
	C658.565979,601.330688 547.072510,601.331726 435.579071,601.319763 
	C432.564270,601.319458 429.732727,601.445740 426.985718,603.190552 
	C404.062531,617.750671 381.065735,632.194885 357.491150,647.080505 
M513.499817,817.626831 
	C637.659607,817.628052 761.819458,817.627319 885.979248,817.637695 
	C890.813354,817.638123 895.605408,817.393860 900.425354,816.814392 
	C933.320068,812.859436 959.553162,784.035522 959.592651,750.991516 
	C959.713318,649.996826 959.812744,549.001465 959.515625,448.007568 
	C959.449280,425.458557 949.417297,407.292175 931.090881,393.927948 
	C929.692932,392.908447 928.362000,391.363312 926.234680,392.140076 
	C924.996094,393.951569 926.397705,395.361755 926.937073,396.815918 
	C930.203613,405.622070 932.437439,414.622070 932.435425,424.084015 
	C932.413940,526.245300 932.433960,628.406677 932.345398,730.567932 
	C932.327209,751.564392 924.436707,769.634705 910.101379,784.677734 
	C893.373840,802.231140 872.521606,810.394836 848.279297,810.387634 
	C678.788025,810.337402 509.296783,810.355896 339.805511,810.352417 
	C336.573944,810.352356 333.342377,810.352417 330.110809,810.352417 
	C331.514526,812.070007 332.964355,812.858826 334.502655,813.392822 
	C342.919861,816.314636 351.608276,817.622925 360.507568,817.622681 
	C411.171631,817.621521 461.835693,817.624817 513.499817,817.626831 
M974.176575,529.500000 
	C974.169250,601.660583 974.149780,673.821106 974.168701,745.981689 
	C974.171326,756.047974 973.121094,765.941956 969.851074,775.507507 
	C958.860901,807.655701 928.851807,832.143921 887.644348,832.069153 
	C712.326172,831.750977 537.007019,831.965515 361.688202,832.024719 
	C357.128906,832.026245 352.554474,830.942688 347.751831,831.901550 
	C349.113220,833.691833 350.854248,834.298889 352.467804,835.107239 
	C362.380157,840.073059 372.960602,841.771667 383.943848,841.770691 
	C560.595886,841.754639 737.247986,841.760193 913.900024,841.786743 
	C919.590027,841.787598 925.208923,841.320435 930.776733,840.170532 
	C958.796509,834.383240 984.388367,808.237305 984.210571,770.878479 
	C983.744873,673.055603 984.081543,575.228882 984.070740,477.403687 
	C984.070068,471.407562 984.011780,465.386810 982.665955,459.499023 
	C981.061157,452.477966 979.004272,445.628113 974.177612,439.102173 
	C974.177612,469.529480 974.177612,499.014740 974.176575,529.500000 
z"/>
<path fill="#000000" opacity="1.000000" stroke="none" 
	d="
M392.396667,223.345428 
	C424.350281,203.173798 456.000732,183.201935 487.549530,163.294205 
	C487.137939,162.299835 487.099213,161.851410 486.884552,161.738998 
	C479.564911,157.906143 479.587677,157.918549 482.097351,149.797714 
	C484.259644,142.800797 486.340332,135.778702 488.487946,128.777176 
	C489.521210,125.408562 488.792267,123.476166 484.860931,122.960068 
	C477.121796,121.944115 469.425293,120.598885 461.717285,119.352089 
	C459.434784,118.982887 457.172760,118.487335 454.469849,117.966545 
	C454.352051,110.112762 456.487366,102.707962 457.109833,95.159416 
	C457.410248,91.516571 458.328949,87.925217 458.639648,84.282570 
	C458.947876,80.669548 460.249634,79.478668 464.094025,80.124420 
	C475.075867,81.969093 486.165436,83.178215 497.137634,85.071899 
	C500.901825,85.721565 502.240387,84.399620 503.206390,81.191788 
	C506.326111,70.831879 509.703186,60.548809 512.761108,50.171307 
	C513.835693,46.524506 515.498169,45.398643 519.260193,46.599972 
	C528.766113,49.635483 538.356506,52.410137 547.937561,55.205109 
	C550.971924,56.090286 551.855713,57.674038 550.836365,60.764545 
	C548.124756,68.986023 545.586182,77.265503 543.055298,85.545303 
	C541.448547,90.801682 542.391052,91.989479 547.753296,92.740623 
	C556.479797,93.963020 565.169678,95.444626 573.892090,96.698433 
	C576.740662,97.107903 577.407288,98.544182 576.982605,101.191345 
	C575.377258,111.198036 573.770752,121.207611 572.418884,131.250320 
	C571.897217,135.126099 569.764526,135.818176 566.523132,135.318024 
	C561.432800,134.532562 556.308960,133.911880 551.266235,132.890976 
	C548.415222,132.313782 546.065063,132.828308 543.703247,134.353317 
	C538.245178,137.877533 532.756226,141.356094 527.222168,144.759399 
	C525.107788,146.059692 523.849121,147.775848 523.156982,150.169540 
	C521.585022,155.606079 519.737793,160.962738 518.144592,166.393539 
	C517.275269,169.356674 515.752258,170.645828 512.697327,169.297989 
	C512.547302,169.231796 512.353394,169.251923 512.216736,169.170273 
	C500.497498,162.169373 491.199493,167.256699 480.920471,173.789139 
	C385.602173,234.364868 290.012482,294.513641 194.496857,354.778870 
	C165.756393,372.912567 137.002014,391.024261 108.250687,409.140717 
	C106.700554,410.117462 105.146530,411.093811 103.545227,411.981812 
	C101.951973,412.865387 100.175621,414.097229 98.819405,411.762177 
	C97.453827,409.410980 99.503288,408.455688 100.984222,407.506958 
	C112.487694,400.137299 124.003410,392.786285 135.555069,385.492401 
	C221.062683,331.501770 306.579529,277.525787 392.396667,223.345428 
M528.570374,133.500809 
	C530.221008,136.748108 531.454651,136.518982 534.884705,132.136017 
	C532.477051,129.757797 530.459290,129.562027 528.570374,133.500809 
z"/>
<path fill="#000000" opacity="1.000000" stroke="none" 
	d="
M560.751465,187.683533 
	C571.784363,180.765762 582.476318,173.985916 593.253723,167.344727 
	C595.102295,166.205627 597.321838,163.176270 599.464600,166.775833 
	C601.381165,169.995636 598.007629,170.693558 596.273071,171.790848 
	C553.625977,198.769775 510.941559,225.689682 468.261597,252.616608 
	C383.607178,306.025360 298.953674,359.435577 214.294876,412.837372 
	C188.798218,428.920380 163.306717,445.011902 137.737213,460.978333 
	C135.808670,462.182617 133.236710,465.708527 131.057709,462.297485 
	C128.973572,459.034973 132.933075,457.903473 134.981186,456.609283 
	C257.212250,379.373932 379.474213,302.187500 501.729919,224.991165 
	C521.307556,212.629181 540.869995,200.243195 560.751465,187.683533 
z"/>
<path fill="#000000" opacity="1.000000" stroke="none" 
	d="
M272.220703,591.160034 
	C399.720642,510.687378 526.916565,430.413849 654.110718,350.137451 
	C666.929016,342.047394 679.736328,333.939789 692.549622,325.841705 
	C693.253662,325.396759 693.954346,324.944519 694.677063,324.531586 
	C696.272400,323.620087 697.903564,322.383820 699.411926,324.644928 
	C701.102844,327.179596 699.083557,328.249695 697.436279,329.350006 
	C694.805603,331.107178 692.111816,332.770264 689.436035,334.459381 
	C601.982788,389.664917 514.541504,444.889587 427.069641,500.065735 
	C366.502747,538.270508 305.895782,576.411865 245.296127,614.564758 
	C242.337799,616.427246 239.310959,618.188660 236.247604,619.872620 
	C235.111176,620.497192 233.610428,621.133850 232.674057,619.646118 
	C231.784378,618.232666 232.799103,617.018921 233.859314,616.214417 
	C236.510513,614.202637 239.206467,612.234009 242.003769,610.433533 
	C251.947632,604.033264 261.941376,597.710510 272.220703,591.160034 
z"/>
<path fill="#000000" opacity="1.000000" stroke="none" 
	d="
M202.745850,490.704834 
	C271.241760,447.474365 339.422760,404.421814 407.611023,361.380676 
	C476.926086,317.628326 546.247314,273.885681 615.569702,230.144928 
	C619.937378,227.389023 624.308228,224.635696 628.739197,221.984100 
	C630.404663,220.987488 632.457825,219.513336 633.886780,222.109619 
	C635.122131,224.354111 633.031799,225.411789 631.543945,226.364716 
	C619.479675,234.091492 607.401428,241.797058 595.288574,249.447479 
	C534.307495,287.962738 473.331055,326.485565 412.321686,364.956024 
	C333.276794,414.799072 254.202896,464.596161 175.136826,514.405640 
	C173.305374,515.559387 171.447327,516.678223 169.546341,517.711609 
	C168.347366,518.363403 166.954941,518.857666 165.981415,517.405640 
	C164.895279,515.785645 165.784180,514.515320 167.130264,513.603760 
	C170.853989,511.082184 174.598999,508.589569 178.386658,506.165314 
	C186.385254,501.045898 194.416351,495.977234 202.745850,490.704834 
z"/>
<path fill="#000000" opacity="1.000000" stroke="none" 
	d="
M376.713287,454.673157 
	C471.553986,394.810608 566.078125,335.124664 660.603333,275.440277 
	C661.307617,274.995575 662.002930,274.528473 662.741760,274.148254 
	C664.327759,273.332031 665.977417,271.924438 667.475708,274.255829 
	C669.092773,276.772003 667.196106,277.855560 665.467834,278.947571 
	C651.667664,287.667389 637.860291,296.375671 624.056091,305.089142 
	C568.134216,340.388275 512.226501,375.709991 456.287750,410.982422 
	C373.298492,463.311646 290.287445,515.606384 207.284180,567.913330 
	C205.733780,568.890320 204.186203,569.875000 202.597931,570.787598 
	C201.325531,571.518677 200.054108,571.706177 199.142502,570.199707 
	C198.290802,568.792175 198.747269,567.589844 199.956055,566.713806 
	C201.977570,565.248840 204.037964,563.829773 206.147751,562.495422 
	C262.892334,526.605469 319.645264,490.728729 376.713287,454.673157 
z"/>
<path fill="#000000" opacity="1.000000" stroke="none" 
	d="
M618.999878,723.319519 
	C517.850098,723.302979 417.200287,723.287537 316.550476,723.262146 
	C314.220032,723.261536 311.884827,723.221008 309.560730,723.065735 
	C307.800171,722.948120 306.881927,721.911682 306.947540,720.082764 
	C307.009430,718.356812 308.123047,717.820251 309.596130,717.748230 
	C311.092926,717.674988 312.593567,717.654541 314.092529,717.654480 
	C494.062378,717.651123 674.032227,717.644653 854.002014,717.727112 
	C856.449097,717.728271 860.699585,716.084839 860.881897,720.154419 
	C861.098755,724.998169 856.457764,723.134094 853.960327,723.138733 
	C775.807068,723.283997 697.653442,723.291138 618.999878,723.319519 
z"/>
<path fill="#000000" opacity="1.000000" stroke="none" 
	d="
M855.666382,658.620056 
	C857.850464,658.879700 860.226685,658.378479 860.386658,660.959534 
	C860.516663,663.057617 858.525391,663.656189 856.880005,663.777771 
	C847.704773,664.456055 838.680115,663.757812 829.963928,660.741211 
	C829.953430,660.180847 829.942993,659.620544 829.932495,659.060181 
	C838.358704,658.910522 846.784973,658.760803 855.666382,658.620056 
z"/>
</svg>